# xmcd CD database file
#
# Track frame offsets:
#	150
#	16200
#	32362
#	49510
#	63452
#	83814
#	100872
#	115766
#	128243
#	150110
#	168291
#	188201
#	209138
#	220437
#	241489
#	256536
#	273260
#	292117
#	308468
#	323156
#	343664
#
# Disc length: 4792 seconds
#
# Revision: 0
# Processed by: cddbd v1.4PL0 Copyright (c) Steve Scherf et al.
# Submitted via: CDex 1.40Beta9
#
DISCID=1e12b615
DTITLE=LeAnn Rimes - Platinum Collection 2001
DYEAR=2001
DGENRE=Country
TTITLE0=Cant fight the Moonlight
TTITLE1=You light up my Life
TTITLE2=I need you
TTITLE3=Big Deal
TTITLE4=Please Remember
TTITLE5=The right Kind of wrong
TTITLE6=But I do love you
TTITLE7=Blue
TTITLE8=How do I live
TTITLE9=Looking through your Eyes
TTITLE10=I believe in you
TTITLE11=Bridge over troubled Waters
TTITLE12=Leaving on your Mind
TTITLE13=One of these Days
TTITLE14=Honestly
TTITLE15=You are
TTITLE16=Written in the Stars
TTITLE17=Rock me
TTITLE18=The Light in your Eyes
TTITLE19=Commitment
TTITLE20=The Rose
EXTD=YEAR: 2001 ID3G: 2
EXTT0=
EXTT1=
EXTT2=
EXTT3=
EXTT4=
EXTT5=
EXTT6=
EXTT7=
EXTT8=
EXTT9=
EXTT10=
EXTT11=
EXTT12=
EXTT13=
EXTT14=
EXTT15=
EXTT16=
EXTT17=
EXTT18=
EXTT19=
EXTT20=
PLAYORDER=
